Movies : Sci-Fi : DVD Rip : English
World Without End (1956)

 
Four astronauts returning from mankind's first mission to Mars, 
enter a time warp and crash on a 26th Century Earth devastated by atomic war. 
Our heroes meet with hideous mutant cavemen, giant spiders, love-struck beauties in short dresses, 
and jealous old geezers in sparkly skullcaps as they struggle to save humanity and build a new world.


Director: Edward Bernds


Hugh Marlowe ... John Borden
Nancy Gates ... Garnet
Nelson Leigh ... Dr. Eldon Galbraithe
Rod Taylor ... Herbert Ellis
Shirley Patterson .. Elaine 
Lisa Montell ... Deena

 

Format : AVI
Format/Info : Audio Video Interleave
File size : 1.04 GiB
Duration : 1h 20mn
Overall bit rate : 1 840 Kbps

Video
Format : MPEG-4 Visual
Format profile : Simple@L3
Format settings, BVOP : No
Format settings, QPel : No
Format settings, GMC : No warppoints
Format settings, Matrix : Default
Codec ID : XVID
Codec ID/Hint : XviD
Duration : 1h 20mn
Bit rate : 1 634 Kbps
Width : 640 pixels
Height : 360 pixels
Display aspect ratio : 16/9
Frame rate : 29.970 fps
Original frame rate : 29.969 fps
Resolution : 24 bits
Colorimetry : 4:2:0
Scan type : Progressive
Bits/(Pixel*Frame) : 0.237
Stream size : 943 MiB (89%)
Writing library : Magic0432

Audio
Format : MPEG Audio
Format version : Version 1
Format profile : Layer 3
Codec ID : 55
Codec ID/Hint : MP3
Duration : 1h 20mn
Bit rate mode : Constant
Bit rate : 192 Kbps
Channel(s) : 2 channels
Sampling rate : 44.1 KHz
Resolution : 16 bits
Stream size : 111 MiB (10%)
Alignment : Aligned on interleaves
Interleave, duration : 26 ms (0.78 video frame)
Writing library : LAME3.97

 
http://www.imdb.com/title/tt0049964/